<mxfile host="drawio-plugin" modified="2022-11-24T11:12:13.177Z" agent="5.0 (Macintosh; Intel Mac OS X 12_4_0) AppleWebKit/537.36 (KHTML, like Gecko) Chrome/89.0.4389.114 Safari/537.36" version="20.5.3" etag="DHiaReJUBfIVJ-M9Dl4K" type="embed"><diagram id="69EjgQcPO6qGq7CNqhje" name="Page-1"><mxGraphModel dx="2516" dy="1796" grid="1" gridSize="10" guides="1" tooltips="1" connect="1" arrows="1" fold="1" page="1" pageScale="1" pageWidth="850" pageHeight="1100" math="0" shadow="0"><root><mxCell id="0"/><mxCell id="1" parent="0"/><mxCell id="119" style="edgeStyle=orthogonalEdgeStyle;rounded=0;orthogonalLoop=1;jettySize=auto;html=1;exitX=0.5;exitY=1;exitDx=0;exitDy=0;" edge="1" parent="1" source="110" target="88"><mxGeometry relative="1" as="geometry"/></mxCell><mxCell id="110" value="CNFTWallet" style="html=1;align=left;verticalAlign=top;" vertex="1" parent="1"><mxGeometry x="115" y="-590" width="445" height="350" as="geometry"/></mxCell><mxCell id="111" value="CryptoContext" style="html=1;align=left;verticalAlign=top;" vertex="1" parent="1"><mxGeometry x="125" y="-560" width="280" height="300" as="geometry"/></mxCell><mxCell id="113" value="Encryption" style="html=1;" vertex="1" parent="1"><mxGeometry x="285" y="-530" width="110" height="50" as="geometry"/></mxCell><mxCell id="115" value="Hash" style="html=1;" vertex="1" parent="1"><mxGeometry x="285" y="-460" width="110" height="50" as="geometry"/></mxCell><mxCell id="116" value="SignatureOperations" style="html=1;align=left;verticalAlign=top;" vertex="1" parent="1"><mxGeometry x="135" y="-530" width="130" height="260" as="geometry"/></mxCell><mxCell id="114" value="Address" style="html=1;" vertex="1" parent="1"><mxGeometry x="145" y="-440" width="110" height="50" as="geometry"/></mxCell><mxCell id="112" value="Identity" style="html=1;" vertex="1" parent="1"><mxGeometry x="145" y="-500" width="110" height="50" as="geometry"/></mxCell><mxCell id="117" value="SecureRandom" style="html=1;" vertex="1" parent="1"><mxGeometry x="285" y="-390" width="110" height="50" as="geometry"/></mxCell><mxCell id="118" value="Access" style="html=1;" vertex="1" parent="1"><mxGeometry x="285" y="-320" width="110" height="50" as="geometry"/></mxCell><mxCell id="120" style="edgeStyle=orthogonalEdgeStyle;rounded=0;orthogonalLoop=1;jettySize=auto;html=1;exitX=0.5;exitY=1;exitDx=0;exitDy=0;entryX=0.5;entryY=0;entryDx=0;entryDy=0;" edge="1" parent="1" source="110" target="76"><mxGeometry relative="1" as="geometry"><mxPoint x="210" y="-230" as="sourcePoint"/><mxPoint x="-655" y="10" as="targetPoint"/></mxGeometry></mxCell><mxCell id="121" style="edgeStyle=orthogonalEdgeStyle;rounded=0;orthogonalLoop=1;jettySize=auto;html=1;exitX=0.5;exitY=1;exitDx=0;exitDy=0;entryX=0.5;entryY=0;entryDx=0;entryDy=0;" edge="1" parent="1" source="110" target="28"><mxGeometry relative="1" as="geometry"><mxPoint x="210" y="-230" as="sourcePoint"/><mxPoint x="-280" y="10" as="targetPoint"/><Array as="points"><mxPoint x="338" y="-120"/><mxPoint x="1285" y="-120"/></Array></mxGeometry></mxCell><mxCell id="122" style="edgeStyle=orthogonalEdgeStyle;rounded=0;orthogonalLoop=1;jettySize=auto;html=1;exitX=0.5;exitY=1;exitDx=0;exitDy=0;entryX=0.5;entryY=0;entryDx=0;entryDy=0;" edge="1" parent="1" source="110" target="42"><mxGeometry relative="1" as="geometry"><mxPoint x="210" y="-230" as="sourcePoint"/><mxPoint x="25" y="10" as="targetPoint"/><Array as="points"><mxPoint x="338" y="-120"/><mxPoint x="725" y="-120"/></Array></mxGeometry></mxCell><mxCell id="123" style="edgeStyle=orthogonalEdgeStyle;rounded=0;orthogonalLoop=1;jettySize=auto;html=1;exitX=0.5;exitY=1;exitDx=0;exitDy=0;entryX=0.5;entryY=0;entryDx=0;entryDy=0;" edge="1" parent="1" source="110" target="6"><mxGeometry relative="1" as="geometry"><mxPoint x="210" y="-230" as="sourcePoint"/><mxPoint x="585" y="10" as="targetPoint"/><Array as="points"><mxPoint x="338" y="-120"/><mxPoint x="-20" y="-120"/></Array></mxGeometry></mxCell><mxCell id="124" value="" style="group" vertex="1" connectable="0" parent="1"><mxGeometry x="-920" width="510" height="350" as="geometry"/></mxCell><mxCell id="88" value="Issuer wallet functional model" style="html=1;align=left;verticalAlign=top;fontStyle=4" vertex="1" parent="124"><mxGeometry width="510" height="350" as="geometry"/></mxCell><mxCell id="11" value="Create TokenTypes" style="html=1;align=left;verticalAlign=top;" vertex="1" parent="124"><mxGeometry x="20" y="30" width="130" height="300" as="geometry"/></mxCell><mxCell id="12" value="RegisterTokenType" style="html=1;" vertex="1" parent="124"><mxGeometry x="30" y="60" width="110" height="50" as="geometry"/></mxCell><mxCell id="98" value="SmartContract Operations" style="html=1;align=left;verticalAlign=top;" vertex="1" parent="124"><mxGeometry x="170" y="30" width="150" height="300" as="geometry"/></mxCell><mxCell id="99" value="CreateSmartContract" style="html=1;" vertex="1" parent="124"><mxGeometry x="180" y="60" width="130" height="50" as="geometry"/></mxCell><mxCell id="109" value="Client (TokenOwner)&lt;br&gt;Operations" style="html=1;align=center;verticalAlign=middle;" vertex="1" parent="124"><mxGeometry x="340" y="30" width="150" height="150" as="geometry"/></mxCell><mxCell id="129" value="" style="group" vertex="1" connectable="0" parent="1"><mxGeometry x="370" width="710" height="350" as="geometry"/></mxCell><mxCell id="42" value="Regulator wallet functional model" style="html=1;align=left;verticalAlign=top;fontStyle=4;container=0;" vertex="1" parent="129"><mxGeometry width="710" height="350" as="geometry"/></mxCell><mxCell id="44" value="Regulation Operations" style="html=1;align=left;verticalAlign=top;container=0;" vertex="1" parent="129"><mxGeometry x="170" y="40" width="180" height="290" as="geometry"/></mxCell><mxCell id="45" value="RegulatoryBurnToken" style="html=1;container=0;" vertex="1" parent="129"><mxGeometry x="180" y="80" width="160" height="50" as="geometry"/></mxCell><mxCell id="46" value="RegulatoryTransfer" style="html=1;container=0;" vertex="1" parent="129"><mxGeometry x="180" y="140" width="160" height="50" as="geometry"/></mxCell><mxCell id="47" value="RegulatoryChangeToken" style="html=1;container=0;" vertex="1" parent="129"><mxGeometry x="180" y="200" width="160" height="50" as="geometry"/></mxCell><mxCell id="48" value="AcceptTokenRequest" style="html=1;container=0;" vertex="1" parent="129"><mxGeometry x="180" y="260" width="160" height="50" as="geometry"/></mxCell><mxCell id="70" value="Transaction approvals" style="html=1;align=left;verticalAlign=top;container=0;" vertex="1" parent="129"><mxGeometry x="370" y="40" width="150" height="290" as="geometry"/></mxCell><mxCell id="71" value="ApproveTransaction" style="html=1;container=0;" vertex="1" parent="129"><mxGeometry x="380" y="80" width="130" height="50" as="geometry"/></mxCell><mxCell id="72" value="RejectTransaction" style="html=1;container=0;" vertex="1" parent="129"><mxGeometry x="380" y="140" width="130" height="50" as="geometry"/></mxCell><mxCell id="50" value="Arrest" style="html=1;align=left;verticalAlign=top;container=0;" vertex="1" parent="129"><mxGeometry x="20" y="40" width="130" height="290" as="geometry"/></mxCell><mxCell id="51" value="FreezeToken" style="html=1;container=0;" vertex="1" parent="129"><mxGeometry x="30" y="80" width="110" height="50" as="geometry"/></mxCell><mxCell id="52" value="UnfreezeToken" style="html=1;container=0;" vertex="1" parent="129"><mxGeometry x="30" y="140" width="110" height="50" as="geometry"/></mxCell><mxCell id="102" value="SmartContract Operations" style="html=1;align=left;verticalAlign=top;container=0;" vertex="1" parent="129"><mxGeometry x="540" y="40" width="150" height="290" as="geometry"/></mxCell><mxCell id="105" value="ApproveSmartContract" style="html=1;container=0;" vertex="1" parent="129"><mxGeometry x="550" y="80" width="130" height="50" as="geometry"/></mxCell><mxCell id="106" value="RejectSmartContract" style="html=1;container=0;" vertex="1" parent="129"><mxGeometry x="550" y="140" width="130" height="50" as="geometry"/></mxCell><mxCell id="130" value="" style="group" vertex="1" connectable="0" parent="1"><mxGeometry x="-390" width="740" height="350" as="geometry"/></mxCell><mxCell id="6" value="Client (TokenOwner) wallet functional model" style="html=1;align=left;verticalAlign=top;fontStyle=4;container=0;" vertex="1" parent="130"><mxGeometry width="740" height="350" as="geometry"/></mxCell><mxCell id="60" value="Transfer Operations" style="html=1;align=left;verticalAlign=top;container=0;" vertex="1" parent="130"><mxGeometry x="170" y="40" width="200" height="290" as="geometry"/></mxCell><mxCell id="59" value="AcceptToken" style="html=1;container=0;" vertex="1" parent="130"><mxGeometry x="180" y="200" width="180" height="50" as="geometry"/></mxCell><mxCell id="61" value="SendTokenToMember" style="html=1;container=0;" vertex="1" parent="130"><mxGeometry x="180" y="80" width="180" height="50" as="geometry"/></mxCell><mxCell id="62" value="SendTokenToSmartContract" style="html=1;container=0;" vertex="1" parent="130"><mxGeometry x="180" y="140" width="180" height="50" as="geometry"/></mxCell><mxCell id="73" value="Modify Operations" style="html=1;align=left;verticalAlign=top;container=0;" vertex="1" parent="130"><mxGeometry x="390" y="40" width="130" height="290" as="geometry"/></mxCell><mxCell id="57" value="ChangeToken" style="html=1;container=0;" vertex="1" parent="130"><mxGeometry x="400" y="140" width="110" height="50" as="geometry"/></mxCell><mxCell id="58" value="MergeTokens" style="html=1;container=0;" vertex="1" parent="130"><mxGeometry x="400" y="80" width="110" height="50" as="geometry"/></mxCell><mxCell id="55" value="Token Operations" style="html=1;align=left;verticalAlign=top;container=0;" vertex="1" parent="130"><mxGeometry x="20" y="40" width="130" height="290" as="geometry"/></mxCell><mxCell id="56" value="Issue" style="html=1;container=0;" vertex="1" parent="130"><mxGeometry x="30" y="80" width="110" height="50" as="geometry"/></mxCell><mxCell id="14" value="BurnTokens" style="html=1;container=0;" vertex="1" parent="130"><mxGeometry x="30" y="140" width="110" height="50" as="geometry"/></mxCell><mxCell id="16" value="Messages" style="html=1;align=left;verticalAlign=top;movable=1;resizable=1;rotatable=1;deletable=1;editable=1;connectable=1;container=0;" vertex="1" parent="130"><mxGeometry x="540" y="40" width="180" height="290" as="geometry"/></mxCell><mxCell id="17" value="ProposeToken" style="html=1;container=0;" vertex="1" parent="130"><mxGeometry x="550" y="80" width="160" height="50" as="geometry"/></mxCell><mxCell id="19" value="AcceptTransferProposal" style="html=1;container=0;" vertex="1" parent="130"><mxGeometry x="550" y="140" width="160" height="50" as="geometry"/></mxCell><mxCell id="20" value="RequestToken" style="html=1;container=0;" vertex="1" parent="130"><mxGeometry x="550" y="200" width="160" height="50" as="geometry"/></mxCell><mxCell id="21" value="AcceptTokenRequest" style="html=1;container=0;" vertex="1" parent="130"><mxGeometry x="550" y="260" width="160" height="50" as="geometry"/></mxCell><mxCell id="131" value="" style="group" vertex="1" connectable="0" parent="1"><mxGeometry x="1490" width="200" height="350" as="geometry"/></mxCell><mxCell id="76" value="DataFeed functional model" style="html=1;align=left;verticalAlign=top;fontStyle=4" vertex="1" parent="131"><mxGeometry width="200" height="350" as="geometry"/></mxCell><mxCell id="83" value="DataFeed" style="html=1;align=left;verticalAlign=top;" vertex="1" parent="131"><mxGeometry x="20" y="40" width="160" height="290" as="geometry"/></mxCell><mxCell id="84" value="RegisterDataFeed" style="html=1;" vertex="1" parent="131"><mxGeometry x="32.30769230769232" y="80" width="135.3846153846154" height="50" as="geometry"/></mxCell><mxCell id="85" value="SubmitDataFeedValue" style="html=1;" vertex="1" parent="131"><mxGeometry x="32.30769230769232" y="140" width="135.3846153846154" height="50" as="geometry"/></mxCell><mxCell id="132" value="" style="group" vertex="1" connectable="0" parent="1"><mxGeometry x="1100" width="370" height="350" as="geometry"/></mxCell><mxCell id="28" value="Admin wallet functional model" style="html=1;align=left;verticalAlign=top;fontStyle=4;container=0;" vertex="1" parent="132"><mxGeometry width="370" height="350" as="geometry"/></mxCell><mxCell id="36" value="Registration" style="html=1;align=left;verticalAlign=top;container=0;" vertex="1" parent="132"><mxGeometry x="20" y="40" width="130" height="290" as="geometry"/></mxCell><mxCell id="37" value="RegisterMember" style="html=1;container=0;" vertex="1" parent="132"><mxGeometry x="30" y="80" width="110" height="50" as="geometry"/></mxCell><mxCell id="38" value="UpdateMember" style="html=1;container=0;" vertex="1" parent="132"><mxGeometry x="30" y="140" width="110" height="50" as="geometry"/></mxCell><mxCell id="30" value="Endorsement" style="html=1;align=left;verticalAlign=top;container=0;" vertex="1" parent="132"><mxGeometry x="170" y="40" width="180" height="290" as="geometry"/></mxCell><mxCell id="31" value="RequestEndorsement" style="html=1;container=0;" vertex="1" parent="132"><mxGeometry x="180" y="80" width="160" height="50" as="geometry"/></mxCell><mxCell id="32" value="EndorseMember" style="html=1;container=0;" vertex="1" parent="132"><mxGeometry x="180" y="140" width="160" height="50" as="geometry"/></mxCell><mxCell id="33" value="RejectEndrsement" style="html=1;container=0;" vertex="1" parent="132"><mxGeometry x="180" y="200" width="160" height="50" as="geometry"/></mxCell><mxCell id="134" value="ChainInterface" style="html=1;" vertex="1" parent="1"><mxGeometry x="430" y="-560" width="110" height="150" as="geometry"/></mxCell></root></mxGraphModel></diagram></mxfile>